<svg xmlns="http://www.w3.org/2000/svg" version="1.1" xmlns:xlink="http://www.w3.org/1999/xlink" xmlns:svgjs="http://svgjs.dev/svgjs" width="1000" height="205" viewBox="0 0 1000 205"><g transform="matrix(1,0,0,1,0.16994382022460286,0.19938356164382753)"><svg viewBox="0 0 356 73" data-background-color="#ffffff" preserveAspectRatio="xMidYMid meet" height="205" width="1000" xmlns="http://www.w3.org/2000/svg" xmlns:xlink="http://www.w3.org/1999/xlink"><g id="tight-bounds" transform="matrix(1,0,0,1,-0.06049999999996203,-0.07099999999999795)"><svg viewBox="0 0 356.12052 73.14168784325732" height="73.14168784325732" width="356.12052"><g><svg viewBox="0 0 356.12052 73.14168784325732" height="73.14168784325732" width="356.12052"><g><svg viewBox="0 0 356.12052 73.14168784325732" height="73.14168784325732" width="356.12052"><g><path d="M0 73.142v-73.142h356.121v73.142z" fill="#010c80" stroke="transparent" stroke-width="0" rx="0%" data-fill-palette-color="tertiary"></path><path d="M3.283 69.858v-66.575h349.554v66.575z" fill="#ffffff" stroke="transparent" stroke-width="0" rx="0%" data-fill-palette-color="quaternary"></path><path d="M9.85 63.292v-53.442h336.421v53.442z" fill="#010c80" stroke="transparent" stroke-width="0" data-fill-palette-color="tertiary"></path></g><g transform="matrix(1,0,0,1,19.69974,19.69974)" id="textblocktransform"><svg viewBox="0 0 316.72104 33.74220784325732" height="33.74220784325732" width="316.72104" id="textblock"><g><svg viewBox="0 0 316.72104 33.74220784325732" height="33.74220784325732" width="316.72104"><g transform="matrix(1,0,0,1,0,0)"><svg width="316.72104" viewBox="1.0499999523162842 -33.95000076293945 326.6200256347656 34.79999923706055" height="33.74220784325732" data-palette-color="#ffffff"><path d="M16.75 0.85L16.75 0.85Q13.7 0.85 10.9-0.25 8.1-1.35 5.88-3.53 3.65-5.7 2.35-8.95 1.05-12.2 1.05-16.55L1.05-16.55Q1.05-20.8 2.35-24.05 3.65-27.3 5.88-29.5 8.1-31.7 10.93-32.83 13.75-33.95 16.75-33.95L16.75-33.95Q19.75-33.95 22.58-32.85 25.4-31.75 27.6-29.58 29.8-27.4 31.1-24.15 32.4-20.9 32.4-16.55L32.4-16.55Q32.4-12.3 31.1-9.05 29.8-5.8 27.6-3.6 25.4-1.4 22.6-0.28 19.8 0.85 16.75 0.85ZM16.75-0.65L16.75-0.65Q19.6-0.65 21.35-2.13 23.1-3.6 23.9-7.1 24.7-10.6 24.7-16.55L24.7-16.55Q24.7-22.5 23.9-25.98 23.1-29.45 21.35-30.93 19.6-32.4 16.75-32.4L16.75-32.4Q13.95-32.4 12.18-30.93 10.4-29.45 9.6-25.98 8.8-22.5 8.8-16.55L8.8-16.55Q8.8-10.6 9.6-7.1 10.4-3.6 12.18-2.13 13.95-0.65 16.75-0.65ZM42.9 0L35.2 0 35.2-1.05 36.65-1.45Q37.6-1.7 37.97-2.4 38.35-3.1 38.35-4.1L38.35-4.1 38.35-28.3Q37.9-29.25 37.57-29.73 37.25-30.2 36.9-30.55 36.55-30.9 35.95-31.35L35.95-31.35 35.05-32 35.05-33.05 43.6-33.05 60.2-10.35 60.2-28.9Q60.2-29.9 59.87-30.65 59.55-31.4 58.55-31.65L58.55-31.65 57.05-32 57.05-33.05 64.5-33.05 64.5-32 63.25-31.65Q62.3-31.35 62.07-30.63 61.85-29.9 61.85-28.9L61.85-28.9 61.85 0.2 59.05 0.2 40-26 40-4.15Q40-3.1 40.3-2.4 40.6-1.7 41.55-1.45L41.55-1.45 42.9-1.05 42.9 0ZM91.5 0L67.4 0 67.4-1.05 68.4-1.35Q69.45-1.7 69.75-2.27 70.05-2.85 70.05-3.9L70.05-3.9 70.05-29.2Q70.05-30.2 69.75-30.78 69.45-31.35 68.45-31.7L68.45-31.7 67.4-32 67.4-33.05 79.8-33.05 79.8-32 78.84-31.7Q77.9-31.35 77.57-30.75 77.25-30.15 77.25-29.1L77.25-29.1 77.25-1.5 84.59-1.5Q86.3-1.5 87.15-2.35 88-3.2 88.75-4.8L88.75-4.8 90.59-8.95 92-8.95 91.5 0ZM106.89 0L94.39 0 94.39-1.05 95.39-1.35Q96.39-1.7 96.72-2.27 97.04-2.85 97.04-3.9L97.04-3.9 97.04-29.15Q97.04-30.2 96.72-30.78 96.39-31.35 95.39-31.7L95.39-31.7 94.39-32 94.39-33.05 106.89-33.05 106.89-32 105.89-31.7Q104.94-31.35 104.59-30.78 104.24-30.2 104.24-29.15L104.24-29.15 104.24-3.9Q104.24-2.85 104.59-2.27 104.94-1.7 105.89-1.35L105.89-1.35 106.89-1.05 106.89 0ZM117.49 0L109.79 0 109.79-1.05 111.24-1.45Q112.19-1.7 112.57-2.4 112.94-3.1 112.94-4.1L112.94-4.1 112.94-28.3Q112.49-29.25 112.17-29.73 111.84-30.2 111.49-30.55 111.14-30.9 110.54-31.35L110.54-31.35 109.64-32 109.64-33.05 118.19-33.05 134.79-10.35 134.79-28.9Q134.79-29.9 134.47-30.65 134.14-31.4 133.14-31.65L133.14-31.65 131.64-32 131.64-33.05 139.09-33.05 139.09-32 137.84-31.65Q136.89-31.35 136.67-30.63 136.44-29.9 136.44-28.9L136.44-28.9 136.44 0.2 133.64 0.2 114.59-26 114.59-4.15Q114.59-3.1 114.89-2.4 115.19-1.7 116.14-1.45L116.14-1.45 117.49-1.05 117.49 0ZM166.79 0L141.99 0 141.99-1.05 142.99-1.4Q143.89-1.65 144.24-2.27 144.59-2.9 144.64-4L144.64-4 144.64-29.15Q144.59-30.2 144.29-30.78 143.99-31.35 143.04-31.65L143.04-31.65 141.99-32 141.99-33.05 165.79-33.05 166.14-25.05 164.74-25.05 162.74-29.55Q162.34-30.5 161.84-31.03 161.34-31.55 160.34-31.55L160.34-31.55 151.84-31.55Q151.79-28.45 151.79-25.18 151.79-21.9 151.79-17.8L151.79-17.8 156.74-17.8Q157.74-17.8 158.26-18.32 158.79-18.85 159.24-19.75L159.24-19.75 160.09-21.65 161.19-21.65 161.19-12.4 160.09-12.4 159.19-14.3Q158.79-15.2 158.29-15.75 157.79-16.3 156.79-16.3L156.79-16.3 151.79-16.3Q151.79-12.7 151.79-10.1 151.79-7.5 151.81-5.48 151.84-3.45 151.84-1.5L151.84-1.5 161.44-1.5Q162.44-1.5 162.99-2.02 163.54-2.55 163.89-3.5L163.89-3.5 165.74-8 167.14-8 166.79 0ZM191.33 0.85L191.33 0.85Q188.58 0.85 185.76 0.18 182.93-0.5 181.03-1.6L181.03-1.6 181.33-8.55 182.78-8.55 184.33-5.1Q185.03-3.65 185.78-2.7 186.53-1.75 187.78-1.25L187.78-1.25Q188.63-0.9 189.41-0.78 190.18-0.65 191.13-0.65L191.13-0.65Q194.18-0.65 195.96-2.23 197.73-3.8 197.73-6.4L197.73-6.4Q197.73-8.75 196.51-10.1 195.28-11.45 192.58-12.7L192.58-12.7 190.53-13.6Q186.33-15.45 183.91-17.9 181.48-20.35 181.48-24.4L181.48-24.4Q181.48-27.4 183.01-29.53 184.53-31.65 187.23-32.8 189.93-33.95 193.53-33.95L193.53-33.95Q196.18-33.95 198.51-33.25 200.83-32.55 202.58-31.35L202.58-31.35 202.23-25.15 200.78-25.15 198.93-28.9Q198.13-30.55 197.41-31.28 196.68-32 195.63-32.2L195.63-32.2Q195.03-32.3 194.61-32.35 194.18-32.4 193.48-32.4L193.48-32.4Q191.03-32.4 189.26-30.98 187.48-29.55 187.48-27.05L187.48-27.05Q187.48-24.65 188.83-23.15 190.18-21.65 192.73-20.5L192.73-20.5 194.98-19.55Q199.83-17.45 201.93-15.08 204.03-12.7 204.03-9L204.03-9Q204.03-4.6 200.71-1.88 197.38 0.85 191.33 0.85ZM228.83 0L213.38 0 213.38-1.05 215.38-1.45Q217.48-1.9 217.48-3.9L217.48-3.9 217.48-17.55Q217.48-21.05 217.48-24.55 217.48-28.05 217.43-31.55L217.43-31.55 213.48-31.55Q211.88-31.55 211.13-30.7 210.38-29.85 209.63-28.3L209.63-28.3 207.88-24.6 206.48-24.6 206.73-33.05 235.43-33.05 235.68-24.6 234.28-24.6 232.53-28.3Q231.78-29.85 231.03-30.7 230.28-31.55 228.68-31.55L228.68-31.55 224.68-31.55 224.68-3.9Q224.68-1.85 226.78-1.45L226.78-1.45 228.83-1.05 228.83 0ZM253.43 0.85L253.43 0.85Q250.38 0.85 247.58-0.25 244.78-1.35 242.55-3.53 240.33-5.7 239.03-8.95 237.73-12.2 237.73-16.55L237.73-16.55Q237.73-20.8 239.03-24.05 240.33-27.3 242.55-29.5 244.78-31.7 247.6-32.83 250.43-33.95 253.43-33.95L253.43-33.95Q256.43-33.95 259.25-32.85 262.08-31.75 264.28-29.58 266.48-27.4 267.78-24.15 269.08-20.9 269.08-16.55L269.08-16.55Q269.08-12.3 267.78-9.05 266.48-5.8 264.28-3.6 262.08-1.4 259.28-0.28 256.48 0.85 253.43 0.85ZM253.43-0.65L253.43-0.65Q256.28-0.65 258.03-2.13 259.78-3.6 260.58-7.1 261.38-10.6 261.38-16.55L261.38-16.55Q261.38-22.5 260.58-25.98 259.78-29.45 258.03-30.93 256.28-32.4 253.43-32.4L253.43-32.4Q250.63-32.4 248.85-30.93 247.08-29.45 246.28-25.98 245.48-22.5 245.48-16.55L245.48-16.55Q245.48-10.6 246.28-7.1 247.08-3.6 248.85-2.13 250.63-0.65 253.43-0.65ZM283.82 0L271.27 0 271.27-1.05 272.32-1.35Q273.32-1.65 273.6-2.23 273.88-2.8 273.88-3.85L273.88-3.85Q273.93-6.75 273.93-9.65 273.93-12.55 273.93-15.5L273.93-15.5 273.93-17.55Q273.93-20.45 273.93-23.35 273.93-26.25 273.88-29.15L273.88-29.15Q273.88-30.2 273.63-30.78 273.38-31.35 272.38-31.65L272.38-31.65 271.27-32 271.27-33.05 285.27-33.05Q291.13-33.05 294.3-30.83 297.48-28.6 297.48-24.6L297.48-24.6Q297.48-22.4 295.75-20.15 294.02-17.9 290.48-16.7L290.48-16.7 297.27-3.45Q298.13-1.8 299.93-1.2L299.93-1.2 300.88-1 300.88 0 292.02 0 284.57-15.6 280.98-15.6Q280.98-12.05 280.98-9.2 280.98-6.35 281.02-3.85L281.02-3.85Q281.02-2.85 281.35-2.25 281.68-1.65 282.63-1.4L282.63-1.4 283.82-1.05 283.82 0ZM280.98-17.05L280.98-17.05 283.68-17.05Q287.23-17.05 288.88-18.85 290.52-20.65 290.52-24.35L290.52-24.35Q290.52-28.05 288.95-29.83 287.38-31.6 283.88-31.6L283.88-31.6 281.02-31.6Q281.02-29.65 281-27.63 280.98-25.6 280.98-23.08 280.98-20.55 280.98-17.05ZM327.32 0L302.52 0 302.52-1.05 303.52-1.4Q304.42-1.65 304.77-2.27 305.12-2.9 305.17-4L305.17-4 305.17-29.15Q305.12-30.2 304.82-30.78 304.52-31.35 303.57-31.65L303.57-31.65 302.52-32 302.52-33.05 326.32-33.05 326.67-25.05 325.27-25.05 323.27-29.55Q322.87-30.5 322.37-31.03 321.87-31.55 320.87-31.55L320.87-31.55 312.37-31.55Q312.32-28.45 312.32-25.18 312.32-21.9 312.32-17.8L312.32-17.8 317.27-17.8Q318.27-17.8 318.8-18.32 319.32-18.85 319.77-19.75L319.77-19.75 320.62-21.65 321.72-21.65 321.72-12.4 320.62-12.4 319.72-14.3Q319.32-15.2 318.82-15.75 318.32-16.3 317.32-16.3L317.32-16.3 312.32-16.3Q312.32-12.7 312.32-10.1 312.32-7.5 312.35-5.48 312.37-3.45 312.37-1.5L312.37-1.5 321.97-1.5Q322.97-1.5 323.52-2.02 324.07-2.55 324.42-3.5L324.42-3.5 326.27-8 327.67-8 327.32 0Z" opacity="1" transform="matrix(1,0,0,1,0,0)" fill="#ffffff" class="wordmark-text-0" data-fill-palette-color="quaternary" id="text-0"></path></svg></g></svg></g></svg></g></svg></g><g></g></svg></g><defs></defs></svg><rect width="356.12052" height="73.14168784325732" fill="none" stroke="none" visibility="hidden"></rect></g></svg></g></svg>